<svg width="40.000000" height="40.000000" viewBox="0 0 40 40" fill="none" xmlns="http://www.w3.org/2000/svg" xmlns:xlink="http://www.w3.org/1999/xlink">
	<desc>
			Created with Pixso.
	</desc>
	<defs/>
	<path id="Vector" d="M10.8 30.71C17.65 29.71 22.36 29.8 29.22 30.74C29.71 30.82 30.17 31.07 30.49 31.45C30.82 31.83 31 32.31 31 32.81C31 33.29 30.83 33.76 30.53 34.12C30.01 34.76 29.48 35.38 28.94 36L31.58 36C31.74 35.8 31.91 35.59 32.08 35.39C32.67 34.66 33 33.75 33 32.81C33 30.79 31.52 29.04 29.49 28.76C22.47 27.79 17.57 27.7 10.52 28.73C8.47 29.03 7 30.8 7 32.84C7 33.75 7.29 34.64 7.85 35.37C8.01 35.58 8.18 35.79 8.34 36L10.92 36C10.41 35.39 9.92 34.77 9.43 34.15C9.15 33.77 8.99 33.31 9 32.84C9 31.76 9.77 30.86 10.8 30.71ZM20 21C20.78 21 21.56 20.84 22.29 20.54C23.02 20.24 23.68 19.79 24.24 19.24C24.79 18.68 25.24 18.02 25.54 17.29C25.84 16.56 26 15.78 26 15C26 14.21 25.84 13.43 25.54 12.7C25.24 11.97 24.79 11.31 24.24 10.75C23.68 10.2 23.02 9.75 22.29 9.45C21.56 9.15 20.78 9 20 9C18.4 9 16.88 9.63 15.75 10.75C14.63 11.88 14 13.4 14 15C14 16.59 14.63 18.11 15.75 19.24C16.88 20.36 18.4 21 20 21ZM20 23C22.12 23 24.15 22.15 25.65 20.65C27.15 19.15 28 17.12 28 15C28 12.87 27.15 10.84 25.65 9.34C24.15 7.84 22.12 7 20 7C17.87 7 15.84 7.84 14.34 9.34C12.84 10.84 12 12.87 12 15C12 17.12 12.84 19.15 14.34 20.65C15.84 22.15 17.87 23 20 23Z" fill="#FFFFFF" fill-opacity="1.000000" fill-rule="evenodd"/>
	<path id="Vector" d="M20 38C29.94 38 38 29.94 38 20C38 10.05 29.94 2 20 2C10.05 2 2 10.05 2 20C2 29.94 10.05 38 20 38ZM20 40C31.04 40 40 31.04 40 20C40 8.95 31.04 0 20 0C8.95 0 0 8.95 0 20C0 31.04 8.95 40 20 40Z" fill="#FFFFFF" fill-opacity="1.000000" fill-rule="evenodd"/>
</svg>
